<svg xmlns="http://www.w3.org/2000/svg" xmlns:xlink="http://www.w3.org/1999/xlink" fill="none" version="1.1" width="16" height="16" viewBox="0 0 16 16"><defs><mask id="master_svg0_83_9911" style="mask-type:alpha" maskUnits="objectBoundingBox"><g><rect x="0" y="0" width="16" height="16" rx="0" fill="#FFFFFF" fill-opacity="1"/></g></mask></defs><g mask="url(#master_svg0_83_9911)"><g transform="matrix(0.7071067690849304,-0.7071067690849304,0.7071067690849304,0.7071067690849304,-6.212893645744771,1.000747840385884)"><path d="M4.2014625,15.89961L4.2014625,21.6C4.2014625,21.8209,4.3805525,22,4.6014625,22L5.6014625,22C5.8223825,22,6.0014625,21.8209,6.0014625,21.6L6.0014625,15.89961L11.7015625,15.89961C11.9224625,15.89961,12.1015625,15.72052,12.1015625,15.49961L12.1015625,14.49961C12.1015625,14.2787,11.9224625,14.09961,11.7015625,14.09961L6.0014625,14.09961L6.0014625,8.4C6.0014625,8.179086,5.8223825,8,5.6014625,8L4.6014625,8C4.3805525,8,4.2014625,8.179086,4.2014625,8.4L4.2014625,14.09961L-1.4984375,14.09961C-1.7193515,14.09961,-1.8984375,14.2787,-1.8984375,14.49961L-1.8984375,15.49961C-1.8984375,15.72052,-1.7193515,15.89961,-1.4984375,15.89961L4.2014625,15.89961Z" fill-rule="evenodd" fill="#BCC8FF" fill-opacity="1"/></g></g></svg>