<svg xmlns="http://www.w3.org/2000/svg" xmlns:xlink="http://www.w3.org/1999/xlink" fill="none" version="1.1" width="20" height="20" viewBox="0 0 20 20"><defs><mask id="master_svg0_83_20453" style="mask-type:alpha" maskUnits="objectBoundingBox"><g><rect x="0" y="0" width="20" height="20" rx="0" fill="#FFFFFF" fill-opacity="1"/></g></mask></defs><g mask="url(#master_svg0_83_20453)"><g><path d="M14.2998046875,3.50078125L14.2998046875,8.00078125L15.6998046875,8.00078125L15.6998046875,3.50078125Q15.6998046875,2.79661925,15.2019046875,2.29870025Q14.7040046875,1.80078125,13.9998046875,1.80078125L3.4998046875,1.80078125Q2.7956416875,1.80078125,2.2977236875,2.29869925Q1.7998046875,2.79661825,1.7998046875,3.50078125L1.7998046875,14.50078125Q1.7998046875,15.20498125,2.2977236875,15.70288125Q2.7956416875,16.20078125,3.4998046875,16.20078125L6.9998046875,16.20078125L6.9998046875,14.80078125L3.4998046875,14.80078125Q3.1998046875,14.80078125,3.1998046875,14.50078125L3.1998046875,3.50078125Q3.1998046875,3.3765212499999997,3.2876746875,3.28865125Q3.3755446874999997,3.20078125,3.4998046875,3.20078125L13.9998046875,3.20078125Q14.1241046875,3.20078125,14.2119046875,3.28865125Q14.2998046875,3.3765212499999997,14.2998046875,3.50078125ZM8.3488446875,8.13478125L17.5143046875,11.67603125C17.6852046875,11.74207125,17.684704687500002,11.98408125,17.5136046875,12.04938125L13.7751046875,13.47698125L16.8820046875,16.46408125C16.9638046875,16.54278125,16.9638046875,16.67368125,16.8820046875,16.75238125L16.1961046875,17.41198125C16.1187046875,17.48638125,15.9963046875,17.48638125,15.9188046875,17.41198125L12.7138046875,14.33028125L10.4949146875,17.615481250000002C10.3967146875,17.76088125,10.1722646875,17.71838125,10.1339846875,17.54718125L8.0815746875,8.36497125C8.0467246875,8.20902125,8.1997846875,8.07719125,8.3488446875,8.13478125Z" fill-rule="evenodd" fill="#1EA9FF" fill-opacity="1"/></g></g></svg>