<svg xmlns="http://www.w3.org/2000/svg" xmlns:xlink="http://www.w3.org/1999/xlink" fill="none" version="1.1" width="16" height="16" viewBox="0 0 16 16"><defs><mask id="master_svg0_75_15694" style="mask-type:alpha" maskUnits="objectBoundingBox"><g><rect x="0" y="0" width="16" height="16" rx="0" fill="#FFFFFF" fill-opacity="1"/></g></mask></defs><g mask="url(#master_svg0_75_15694)"><g><path d="M9.75,2.62012L9.75,1.4C9.75,1.179086,9.57091,1,9.35,1L6.65,1C6.42909,1,6.25,1.179086,6.25,1.4L6.25,2.62012L1.4,2.62012C1.179086,2.62012,1,2.7992,1,3.02012L1,3.60855C1,3.82946,1.179086,4.00855,1.4,4.00855L2.05003,4.00855L2.05003,5.2285C2.05003,5.44942,2.22912,5.6285,2.45003,5.6285L3.05003,5.6285C3.27095,5.6285,3.45003,5.44942,3.45003,5.2285L3.45003,4.00855L12.55,4.00855L12.55,13.1492Q12.55,13.612,12.0834,13.612L3.9167,13.612Q3.7234,13.612,3.58672,13.4764Q3.45003,13.3409,3.45003,13.1492L3.45003,7.76404C3.45003,7.54313,3.27095,7.36404,3.05003,7.36404L2.45003,7.36404C2.22912,7.36404,2.05003,7.54313,2.05003,7.76404L2.05003,13.1492Q2.05003,13.916,2.5967700000000002,14.4582Q3.1435,15.0004,3.9167,15.0004L12.0834,15.0004Q12.8566,15.0004,13.4033,14.4582Q13.95,13.916,13.95,13.1492L13.95,4.00855L14.6,4.00855C14.8209,4.00855,15,3.82946,15,3.60855L15,3.02012C15,2.7992,14.8209,2.62012,14.6,2.62012L9.75,2.62012ZM9.93334,10.94995L6.06667,10.94995C5.84576,10.94995,5.66667,10.77087,5.66667,10.54995L5.66667,9.96152C5.66667,9.74061,5.84576,9.56152,6.06667,9.56152L9.93334,9.56152C10.15425,9.56152,10.33334,9.74061,10.33334,9.96152L10.33334,10.54995C10.33334,10.77087,10.15425,10.94995,9.93334,10.94995Z" fill-rule="evenodd" fill="#FF3E21" fill-opacity="1"/></g></g></svg>