<?xml version="1.0" standalone="no"?><!DOCTYPE svg PUBLIC "-//W3C//DTD SVG 1.1//EN" "http://www.w3.org/Graphics/SVG/1.1/DTD/svg11.dtd"><svg t="1750048437059" class="icon" viewBox="0 0 1024 1024" version="1.1" xmlns="http://www.w3.org/2000/svg" p-id="3414" width="32" height="32" xmlns:xlink="http://www.w3.org/1999/xlink"><path d="M161.25952 962.56A81.92 81.92 0 1 1 61.44 862.74048V161.25952A81.92 81.92 0 1 1 161.25952 61.44h701.48096A81.92 81.92 0 1 1 962.56 161.25952v701.48096A81.92 81.92 0 1 1 862.74048 962.56H161.25952z m0-40.96h701.48096A82.06336 82.06336 0 0 1 921.6 862.74048V161.25952A82.06336 82.06336 0 0 1 862.74048 102.4H161.25952A82.06336 82.06336 0 0 1 102.4 161.25952v701.48096A82.06336 82.06336 0 0 1 161.25952 921.6zM81.92 122.88a40.96 40.96 0 1 0 0-81.92 40.96 40.96 0 0 0 0 81.92z m0 860.16a40.96 40.96 0 1 0 0-81.92 40.96 40.96 0 0 0 0 81.92z m860.16-860.16a40.96 40.96 0 1 0 0-81.92 40.96 40.96 0 0 0 0 81.92z m0 860.16a40.96 40.96 0 1 0 0-81.92 40.96 40.96 0 0 0 0 81.92z" fill="#1296db" p-id="3415"></path></svg>