<svg xmlns="http://www.w3.org/2000/svg" xmlns:xlink="http://www.w3.org/1999/xlink" fill="none" version="1.1" width="16" height="16" viewBox="0 0 16 16"><defs><filter id="master_svg0_83_9905" filterUnits="objectBoundingBox" color-interpolation-filters="sRGB" x="0" y="0" width="1" height="1"><feFlood flood-opacity="0" result="BackgroundImageFix"/><feBlend mode="normal" in="SourceGraphic" in2="BackgroundImageFix" result="shape"/><feColorMatrix in="SourceAlpha" type="matrix" result="hardAlpha" values="0 0 0 0 0 0 0 0 0 0 0 0 0 0 0 0 0 0 127 0"/><feOffset dy="2" dx="0"/><feGaussianBlur stdDeviation="1"/><feComposite in2="hardAlpha" operator="arithmetic" k2="-1" k3="1"/><feColorMatrix type="matrix" values="0 0 0 0 0.508849561214447 0 0 0 0 0.5907080769538879 0 0 0 0 1 0 0 0 0.10000000149011612 0"/><feBlend mode="normal" in2="shape" result="effect1_innerShadow"/></filter><linearGradient x1="1" y1="0" x2="0" y2="1" id="master_svg1_32_0254"><stop offset="0%" stop-color="#FFFFFF" stop-opacity="1"/><stop offset="100%" stop-color="#D1E5FF" stop-opacity="1"/></linearGradient></defs><g filter="url(#master_svg0_83_9905)"><path d="M16,8C16,12.4183,12.4183,16,8,16C3.58172,16,0,12.4183,0,8C0,3.58172,3.58172,0,8,0C12.4183,0,16,3.58172,16,8ZM14.2,8C14.2,4.57583,11.4242,1.8,8,1.8C4.57583,1.8,1.8,4.57583,1.8,8C1.8,11.4242,4.57583,14.2,8,14.2C11.4242,14.2,14.2,11.4242,14.2,8ZM8.3435,10.7021L12.1364,6.90919C12.4879,6.55772,12.4879,5.98787,12.1364,5.6364C11.7849,5.28492,11.2151,5.28492,10.8636,5.6364L7.6364,8.8636L5.90919,7.1364C5.55772,6.78492,4.98787,6.78492,4.6364,7.1364C4.28492,7.48787,4.28492,8.05772,4.6364,8.40919L6.92929,10.7021C7.31981,11.0926,7.95298,11.0926,8.3435,10.7021Z" fill-rule="evenodd" fill="url(#master_svg1_32_0254)" fill-opacity="1"/></g></svg>