<svg xmlns="http://www.w3.org/2000/svg" xmlns:xlink="http://www.w3.org/1999/xlink" fill="none" version="1.1" width="16" height="16" viewBox="0 0 16 16"><defs><mask id="master_svg0_75_6853" style="mask-type:alpha" maskUnits="objectBoundingBox"><g><rect x="16" y="0" width="16" height="16" rx="0" fill="#FFFFFF" fill-opacity="1"/></g></mask></defs><g transform="matrix(0,1,-1,0,16,-16)" mask="url(#master_svg0_75_6853)"><g><path d="M29.7273,2.697042479248047L29.7273,4.6182524792480475C29.7273,4.728712479248047,29.8168,4.818252479248047,29.927300000000002,4.818252479248047L30.8,4.818252479248047C30.9105,4.818252479248047,31,4.728712479248047,31,4.6182524792480475L31,2.697042479248047Q31,1.994132479248047,30.503,1.497102479248047Q30.0059,1.0000724792480469,29.303,1.0000724792480469L18.69697,1.0000724792480469Q17.994062,1.0000724792480469,17.497031,1.497102479248047Q17,1.994132479248047,17,2.697042479248047L17,4.6182524792480475C17,4.728712479248047,17.0895432,4.818252479248047,17.2,4.818252479248047L18.07273,4.818252479248047C18.18318,4.818252479248047,18.27273,4.728712479248047,18.27273,4.6182524792480475L18.27273,2.697042479248047Q18.27273,2.5213124792480466,18.39699,2.397052479248047Q18.52124,2.272802479248047,18.69697,2.272802479248047L29.303,2.272802479248047Q29.7273,2.272802479248047,29.7273,2.697042479248047ZM24.59961,6.061842479248047L26.46206,7.613732479248047C26.54693,7.684442479248047,26.67304,7.672972479248047,26.74375,7.588102479248047L27.2558,6.973532479248047C27.3265,6.888682479248047,27.314999999999998,6.762582479248047,27.2302,6.691872479248047L24.12803,4.106532479248047C24.05387,4.044722479248047,23.94613,4.044712479248046,23.87196,4.1065224792480475L20.76936,6.691872479248047C20.68451,6.762582479248047,20.67303,6.888682479248047,20.74373,6.973542479248047L21.255760000000002,7.588102479248047C21.32647,7.672972479248047,21.45259,7.684442479248047,21.53745,7.613732479248047L23.3999,6.061842479248047L23.3999,11.580872479248047C23.3999,11.691272479248047,23.489449999999998,11.780872479248046,23.599899999999998,11.780872479248046L24.39961,11.780872479248046C24.51007,11.780872479248046,24.59961,11.691272479248047,24.59961,11.580872479248047L24.59961,6.061842479248047ZM18.27273,13.303072479248048L18.27273,11.381872479248047C18.27273,11.271472479248047,18.18318,11.181872479248048,18.07273,11.181872479248048L17.2,11.181872479248048C17.0895432,11.181872479248048,17,11.271472479248047,17,11.381872479248047L17,13.303072479248048Q17,14.005972479248047,17.497031,14.503072479248047Q17.994062,15.000072479248047,18.69697,15.000072479248047L29.303,15.000072479248047Q30.0059,15.000072479248047,30.503,14.503072479248047Q31,14.005972479248047,31,13.303072479248048L31,11.381872479248047C31,11.271472479248047,30.9105,11.181872479248048,30.8,11.181872479248048L29.927300000000002,11.181872479248048C29.8168,11.181872479248048,29.7273,11.271472479248047,29.7273,11.381872479248047L29.7273,13.303072479248048Q29.7273,13.727372479248046,29.303,13.727372479248046L18.69697,13.727372479248046Q18.27273,13.727372479248046,18.27273,13.303072479248048Z" fill-rule="evenodd" fill="#20CFFF" fill-opacity="1"/></g></g></svg>