<svg xmlns="http://www.w3.org/2000/svg" xmlns:xlink="http://www.w3.org/1999/xlink" fill="none" version="1.1" width="16" height="16" viewBox="0 0 16 16"><defs><mask id="master_svg0_75_6798" style="mask-type:alpha" maskUnits="objectBoundingBox"><g><rect x="0" y="0" width="16" height="16" rx="0" fill="#FFFFFF" fill-opacity="1"/></g></mask></defs><g mask="url(#master_svg0_75_6798)"><g><path d="M13.3031220703125,13.7273L12.6425220703125,13.7273C12.4216220703125,13.7273,12.2425220703125,13.9064,12.2425220703125,14.1273L12.2425220703125,14.6C12.2425220703125,14.8209,12.4216220703125,15,12.6425220703125,15L13.3031220703125,15Q14.0060220703125,15,14.5031220703125,14.503Q15.0001220703125,14.0059,15.0001220703125,13.303L15.0001220703125,2.6969700000000003Q15.0001220703125,1.994062,14.5031220703125,1.497031Q14.0060220703125,1,13.3031220703125,1L2.6970920703125003,1Q1.9941840703125,1,1.4971530703125,1.497031Q1.0001220703125,1.994062,1.0001220703125,2.6969700000000003L1.0001220703125,13.303Q1.0001220703125,14.0059,1.4971530703125,14.503Q1.9941840703125,15,2.6970920703125003,15L3.3577020703125,15C3.5786120703125,15,3.7577020703125,14.8209,3.7577020703125,14.6L3.7577020703125,14.1273C3.7577020703125,13.9064,3.5786120703125,13.7273,3.3577020703125,13.7273L2.6970920703125003,13.7273Q2.2728520703125,13.7273,2.2728520703125,13.303L2.2728520703125,2.6969700000000003Q2.2728520703125,2.27273,2.6970920703125003,2.27273L13.3031220703125,2.27273Q13.4789220703125,2.27273,13.6031220703125,2.3969899999999997Q13.7274220703125,2.5212399999999997,13.7274220703125,2.6969700000000003L13.7274220703125,13.303Q13.7274220703125,13.7273,13.3031220703125,13.7273ZM8.5999520703125,5.7808L10.4622020703125,7.33267C10.5470520703125,7.40338,10.6731720703125,7.39192,10.7438820703125,7.30706L11.2560220703125,6.69249C11.3267220703125,6.60763,11.3153220703125,6.48152,11.2304220703125,6.41081L8.1279920703125,3.82545C8.0538220703125,3.76364,7.9460920703125,3.76364,7.8719220703125,3.82545L4.7694920703125,6.41081C4.6846320703124995,6.48152,4.6731720703125,6.60763,4.7438820703125,6.69249L5.2560320703125,7.30706C5.3267420703125,7.39192,5.4528520703125,7.40338,5.5377120703125,7.33267L7.3999520703125,5.7808L7.3999520703125,11.2998C7.3999520703125,11.4102,7.4895020703125,11.4998,7.5999520703125,11.4998L8.3999520703125,11.4998C8.510412070312501,11.4998,8.5999520703125,11.4102,8.5999520703125,11.2998L8.5999520703125,5.7808ZM10.2516420703125,13.7273L5.7486120703125,13.7273C5.5276920703125,13.7273,5.3486120703125,13.9064,5.3486120703125,14.1273L5.3486120703125,14.6C5.3486120703125,14.8209,5.5276920703125,15,5.7486120703125,15L10.2516420703125,15C10.4725520703125,15,10.6516420703125,14.8209,10.6516420703125,14.6L10.6516420703125,14.1273C10.6516420703125,13.9064,10.4725520703125,13.7273,10.2516420703125,13.7273Z" fill-rule="evenodd" fill="#20CFFF" fill-opacity="1"/></g></g></svg>