<svg xmlns="http://www.w3.org/2000/svg" xmlns:xlink="http://www.w3.org/1999/xlink" fill="none" version="1.1" width="16" height="16" viewBox="0 0 16 16"><defs><mask id="master_svg0_75_02976" style="mask-type:alpha" maskUnits="objectBoundingBox"><g><rect x="0" y="0" width="16" height="16" rx="0" fill="#FFFFFF" fill-opacity="1"/></g></mask></defs><g mask="url(#master_svg0_75_02976)"><g><path d="M3.3999755859375,11.4L3.3999755859375,12.4C3.3999755859375,12.5105,3.4895155859375,12.6,3.5999755859375,12.6L12.3999755859375,12.6C12.5104755859375,12.6,12.5999755859375,12.5105,12.5999755859375,12.4L12.5999755859375,11.4C12.5999755859375,11.1791,12.7790755859375,11,12.9999755859375,11L13.9999755859375,11C14.2208755859375,11,14.3999755859375,11.1791,14.3999755859375,11.4L14.3999755859375,14C14.3999755859375,14.2209,14.2208755859375,14.4,13.9999755859375,14.4L1.9999755859375,14.4C1.7790615859375,14.4,1.5999755859375,14.2209,1.5999755859375,14L1.5999755859375,11.4C1.5999755859375,11.1791,1.7790615859375,11,1.9999755859375,11L2.9999755859375,11C3.2208855859375003,11,3.3999755859375,11.1791,3.3999755859375,11.4M8.8999755859375,5.24805L10.6825055859375,5.24805C11.0153655859375,5.24805,11.2026055859375,4.865209999999999,10.9982555859375,4.60247L8.3161055859375,1.153999C8.155965585937501,0.948101,7.8447655859375,0.948101,7.6846255859375,1.153999L5.0024855859374995,4.60247C4.7981255859375,4.865209999999999,4.9853655859375,5.24805,5.318225585937499,5.24805L7.0999755859375,5.24805L7.0999755859375,10.34805C7.0999755859375,10.56896,7.2790655859375,10.74805,7.4999755859375,10.74805L8.4999755859375,10.74805C8.7208855859375,10.74805,8.8999755859375,10.56896,8.8999755859375,10.34805L8.8999755859375,5.24805Z" fill-rule="evenodd" fill="#20DAFF" fill-opacity="1"/></g></g></svg>