<svg xmlns="http://www.w3.org/2000/svg" xmlns:xlink="http://www.w3.org/1999/xlink" fill="none" version="1.1" width="33.36328125" height="32.859375" viewBox="0 0 33.36328125 32.859375"><defs><linearGradient x1="0.5" y1="0" x2="0.5" y2="1" id="master_svg0_83_07940"><stop offset="0%" stop-color="#3B90FD" stop-opacity="1"/><stop offset="100%" stop-color="#0051D2" stop-opacity="1"/></linearGradient><linearGradient x1="1" y1="0" x2="0.2679956115926629" y2="1.1679625466743906" id="master_svg1_83_07937"><stop offset="0%" stop-color="#DFE7FF" stop-opacity="1"/><stop offset="100%" stop-color="#D6DDFF" stop-opacity="1"/></linearGradient><mask id="master_svg2_83_07928" style="mask-type:alpha" maskUnits="objectBoundingBox"><g><rect x="5.36328125" y="0.37890625" width="22.166667938232422" height="28" rx="2" fill="#FFFFFF" fill-opacity="1"/></g></mask><filter id="master_svg3_83_07923" filterUnits="objectBoundingBox" color-interpolation-filters="sRGB" x="-0.38095238095238093" y="-0.3609022349363493" width="1.7619047619047619" height="1.7218044698726986"><feFlood flood-opacity="0" result="BackgroundImageFix"/><feBlend mode="normal" in="SourceGraphic" in2="BackgroundImageFix" result="shape"/><feGaussianBlur stdDeviation="2" result="effect1_foregroundBlur"/></filter><linearGradient x1="0.5" y1="0" x2="0.5" y2="1" id="master_svg4_83_07925"><stop offset="0%" stop-color="#00AAFB" stop-opacity="1"/><stop offset="100%" stop-color="#1D73FC" stop-opacity="1"/></linearGradient><filter id="master_svg5_83_07929" filterUnits="objectBoundingBox" color-interpolation-filters="sRGB" x="-1.5900621118012421" y="-1.562499993347696" width="4.180124223602484" height="4.571428556223305"><feFlood flood-opacity="0" result="BackgroundImageFix"/><feColorMatrix in="SourceAlpha" type="matrix" values="0 0 0 0 0 0 0 0 0 0 0 0 0 0 0 0 0 0 127 0"/><feOffset dy="2" dx="0"/><feGaussianBlur stdDeviation="4"/><feColorMatrix type="matrix" values="0 0 0 0 0.08164770156145096 0 0 0 0 0.21221186220645905 0 0 0 0 0.738095223903656 0 0 0 0.4000000059604645 0"/><feBlend mode="normal" in2="BackgroundImageFix" result="effect1_dropShadow"/><feBlend mode="normal" in="SourceGraphic" in2="effect1_dropShadow" result="shape"/><feColorMatrix in="SourceAlpha" type="matrix" result="hardAlpha" values="0 0 0 0 0 0 0 0 0 0 0 0 0 0 0 0 0 0 127 0"/><feOffset dy="1" dx="0"/><feGaussianBlur stdDeviation="1"/><feComposite in2="hardAlpha" operator="arithmetic" k2="-1" k3="1"/><feColorMatrix type="matrix" values="0 0 0 0 0.019607843831181526 0 0 0 0 0.2666666805744171 0 0 0 0 0.8627451062202454 0 0 0 0.4000000059604645 0"/><feBlend mode="normal" in2="shape" result="effect2_innerShadow"/></filter><linearGradient x1="0.5" y1="0" x2="0.5" y2="1" id="master_svg6_83_07931"><stop offset="0%" stop-color="#003BFB" stop-opacity="1"/><stop offset="100%" stop-color="#1D73FC" stop-opacity="1"/></linearGradient></defs><g><g><path d="M17.02994728088379,24.04560625C17.02994728088379,25.15010625,17.925378280883788,26.04560625,19.02994728088379,26.04560625L31.36324728088379,26.04560625C32.46784728088379,26.04560625,33.36324728088379,25.15010625,33.36324728088379,24.04560625L33.36324728088379,5.87890625C33.36324728088379,4.77433725,32.46784728088379,3.87890625,31.36324728088379,3.87890625L19.02994728088379,3.87890625C17.925378280883788,3.87890625,17.02994728088379,4.77433725,17.02994728088379,5.87890625L17.02994728088379,24.04560625Z" fill="url(#master_svg0_83_07940)" fill-opacity="1"/></g><g style="opacity:0.9599999785423279;"><rect x="5.36328125" y="0.37890625" width="22.166667938232422" height="28" rx="2" fill="url(#master_svg1_83_07937)" fill-opacity="0.9599999785423279"/></g><g mask="url(#master_svg2_83_07928)"><g style="opacity:0.4000000059604645;" filter="url(#master_svg3_83_07923)"><path d="M12.36328125,22.04560625C12.36328125,24.25470625,14.15414125,26.04560625,16.36328125,26.04560625L29.27418125,26.04560625C31.51778125,26.04560625,33.32268125,24.20050625,33.27318125,21.95750625L32.91798125,5.83191625C32.893981249999996,4.74641025,32.00718125,3.87890625,30.92138125,3.87890625L16.36328125,3.87890625C14.15414125,3.87890625,12.36328125,5.66976625,12.36328125,7.87890625L12.36328125,22.04560625Z" fill="url(#master_svg4_83_07925)" fill-opacity="1"/></g></g><g filter="url(#master_svg5_83_07929)"><path d="M12.10112011679077,13.854856707763672C11.895196116790771,14.038216707763672,12.024894116790772,14.378906707763672,12.300622116790771,14.378906707763672L14.56675611679077,14.378906707763672C14.732436116790772,14.378906707763672,14.866756116790771,14.513216707763672,14.866756116790771,14.678906707763673L14.866756116790771,18.558906707763672C14.866756116790771,18.724596707763673,15.00106611679077,18.858906707763673,15.166756116790772,18.858906707763673L17.92091611679077,18.858906707763673C18.086606116790772,18.858906707763673,18.22091611679077,18.724596707763673,18.22091611679077,18.558906707763672L18.22091611679077,14.678906707763673C18.22091611679077,14.513216707763672,18.35523611679077,14.378906707763672,18.520916116790772,14.378906707763672L20.78704611679077,14.378906707763672C21.062776116790772,14.378906707763672,21.192476116790772,14.038216707763672,20.986556116790773,13.854856707763672L16.743336116790772,10.076550707763673C16.62961611679077,9.975285007763672,16.45805611679077,9.975285007763672,16.34433611679077,10.076550707763673L12.10112011679077,13.854856707763672Z" fill="url(#master_svg6_83_07931)" fill-opacity="1"/></g></g></svg>